Coordinates
version=1
nRows=4
nColumns=107
inDegrees=yes

Units are S.I. units (second, meters, Newtons, ...)
If the header above contains a line with 'inDegrees', this indicates whether rotational values are in degrees (yes) or radians (no).

endheader
time	sternoclavicular_r2	sternoclavicular_r3	unrotscap_r3	unrotscap_r2	acromioclavicular_r2	acromioclavicular_r3	acromioclavicular_r1	unrothum_r1	unrothum_r3	unrothum_r2	elv_angle	shoulder_elv	shoulder1_r2	shoulder_rot	elbow_flexion	pro_sup	deviation	flexion	proximal_distal_r1	proximal_distal_r3	cmc_flexion	cmc_abduction	mp_flexion	ip_flexion	mcp2_flexion	mcp2_abduction	pm2_flexion	md2_flexion	mcp3_flexion	mcp3_abduction	pm3_flexion	md3_flexion	mcp4_flexion	mcp4_abduction	pm4_flexion	md4_flexion	mcp5_flexion	mcp5_abduction	pm5_flexion	md5_flexion	bicpt_tx	bicpt_ty	bicpt_tz	bicpt2_tx	bicpt2_ty	bicpt2_tz	ptpt_tx	ptpt_ty	ptpt_tz	FCUpt_tx	FCUpt_ty	FCUpt_tz	EDCpt_tx	EDCpt_ty	EDCpt_tz	APLpt_tx	APLpt_ty	APLpt_tz	FPLpt_tx	FPLpt_ty	FPLpt_tz	FPLpt2_tx	FPLpt2_ty	FPLpt2_tz	PEC1pt2_tx	PEC1pt2_ty	PEC1pt2_tz	PEC1pt3_tx	PEC1pt3_ty	PEC1pt3_tz	PEC2pt2_tx	PEC2pt2_ty	PEC2pt2_tz	PEC2pt3_tx	PEC2pt3_ty	PEC2pt3_tz	PEC3pt2_tx	PEC3pt2_ty	PEC3pt2_tz	PEC3pt3_tx	PEC3pt3_ty	PEC3pt3_tz	DELT2pt2a_tx	DELT2pt2a_ty	DELT2pt2a_tz	DELT2pt2_tx	DELT2pt2_ty	DELT2pt2_tz	LAT1pt2_tx	LAT1pt2_ty	LAT1pt2_tz	LAT1pt3_tx	LAT1pt3_ty	LAT1pt3_tz	LAT2pt2_tx	LAT2pt2_ty	LAT2pt2_tz	LAT2pt3_tx	LAT2pt3_ty	LAT2pt3_tz	LAT3pt2_tx	LAT3pt2_ty	LAT3pt2_tz	LAT3pt3_tx	LAT3pt3_ty	LAT3pt3_tz
      0.73333333	     -0.31527491	      0.13353557	     -0.13353557	      0.31527491	     -0.06383676	      0.51590621	      0.23189629	     -0.23189629	     -0.51590621	      0.06383676	    100.87579793	     74.64413725	     -1.76061481	    -34.73124739	     30.54340058	     75.92135451	      0.34211370	     -0.64023645	      0.36849693	     -0.32011822	     40.26463794	    -12.12326584	     -3.35976552	      8.18932502	     99.01486076	     13.02446346	     82.06070599	     68.89617198	     95.65160016	      1.59421659	     83.53627941	     49.64061585	     96.54060319	    -13.44913367	     90.84144701	     42.73382324	    100.94579755	    -14.19348835	     90.09751730	      5.54872752	      0.00091028	     -0.03110074	     -0.00486388	      0.01516552	     -0.01849726	     -0.00273078	      0.00194027	     -0.06852735	     -0.00616587	      0.01159588	     -0.18256462	     -0.00015555	     -0.00911054	      0.00304061	     -0.00046112	      0.00031178	      0.00012471	      0.00062356	      0.00039908	      0.00119723	      0.00067344	     -0.00001014	     -0.00010593	     -0.00012711	      0.00244667	      0.00858408	      0.00597154	     -0.00800352	      0.01932455	     -0.01832930	      0.00244667	      0.00858408	      0.00597154	      0.00053910	      0.01791461	     -0.00941346	      0.00388987	      0.00477350	      0.01582393	      0.00000000	      0.00744941	      0.00000000	     -0.00700826	     -0.03238729	     -0.00614047	      0.02082567	     -0.00092159	     -0.00993222	     -0.00087085	      0.01459709	     -0.00597154	      0.00240520	      0.02106625	     -0.01741698	     -0.00584713	      0.01264805	     -0.00534950	     -0.01219189	      0.02670604	     -0.02989915	     -0.02289089	      0.01414093	     -0.00717414	     -0.01517765	      0.03085294	     -0.03736357
      0.76666667	     -0.31380909	      0.13291472	     -0.13291472	      0.31380909	     -0.06353996	      0.51350758	      0.23081813	     -0.23081813	     -0.51350758	      0.06353996	    101.35088005	     74.29709143	     -1.76890656	    -36.79526247	     30.67179102	     77.68325092	      0.32196989	     -0.67707758	      0.35210866	     -0.33853879	     40.28612981	    -11.51435525	     -3.49421197	      7.02378409	     99.97800268	     13.03268383	     82.32719478	     70.24179848	     96.03423289	      1.66277701	     83.71147562	     49.97549096	     96.76375369	    -13.41757843	     91.51281444	     42.60874882	    101.08901075	    -14.18579285	     91.19842524	      5.50548473	      0.00091453	     -0.03111546	     -0.00486625	      0.01502047	     -0.01853214	     -0.00245178	      0.00181008	     -0.06861152	     -0.00630780	      0.01179328	     -0.18250955	     -0.00011923	     -0.00932197	      0.00313229	     -0.00050891	      0.00030883	      0.00012353	      0.00061766	      0.00039530	      0.00118591	      0.00066707	     -0.00001011	     -0.00010550	     -0.00012660	      0.00243530	      0.00854417	      0.00594377	     -0.00796631	      0.01923471	     -0.01824408	      0.00243530	      0.00854417	      0.00594377	      0.00053659	      0.01783132	     -0.00936970	      0.00387651	      0.00475131	      0.01579039	      0.00000000	      0.00737986	      0.00000000	     -0.00697568	     -0.03223671	     -0.00608269	      0.02158155	     -0.00099505	     -0.01106925	     -0.00086680	      0.01452922	     -0.00594377	      0.00239402	      0.02096831	     -0.01733600	     -0.00581994	      0.01258924	     -0.00532463	     -0.01213520	      0.02658187	     -0.02976014	     -0.02278446	      0.01407518	     -0.00714078	     -0.01510709	      0.03070949	     -0.03718985
      0.80000000	     -0.31379913	      0.13291050	     -0.13291050	      0.31379913	     -0.06353794	      0.51349128	      0.23081080	     -0.23081080	     -0.51349128	      0.06353794	    101.37203980	     74.29473302	     -1.76927586	    -36.78106538	     30.68588116	     77.68792935	      0.32195344	     -0.67709766	      0.35209460	     -0.33854883	     40.28512140	    -11.51168389	     -3.49494871	      7.02339197	     99.98044405	     13.03278649	     82.32764245	     70.24197036	     96.03653885	      1.66296547	     83.71206561	     49.97568471	     96.76596968	    -13.41749549	     91.51463189	     42.60900577	    101.08989939	    -14.18559052	     91.19981967	      5.50560719	      0.00091499	     -0.03111707	     -0.00486651	      0.01502008	     -0.01853597	     -0.00245103	      0.00180974	     -0.06861175	     -0.00630818	      0.01179380	     -0.18250941	     -0.00011913	     -0.00932253	      0.00313254	     -0.00050904	      0.00030883	      0.00012353	      0.00061765	      0.00039530	      0.00118589	      0.00066706	     -0.00001012	     -0.00010552	     -0.00012663	      0.00243522	      0.00854390	      0.00594358	     -0.00796605	      0.01923410	     -0.01824350	      0.00243522	      0.00854390	      0.00594358	      0.00053657	      0.01783075	     -0.00936940	      0.00387642	      0.00475116	      0.01579017	      0.00000000	      0.00737939	      0.00000000	     -0.00697546	     -0.03223569	     -0.00608230	      0.02157653	     -0.00099454	     -0.01106129	     -0.00086677	      0.01452876	     -0.00594358	      0.00239394	      0.02096764	     -0.01733545	     -0.00581976	      0.01258884	     -0.00532446	     -0.01213482	      0.02658103	     -0.02975919	     -0.02278374	      0.01407474	     -0.00714056	     -0.01510661	      0.03070852	     -0.03718867
      0.83333333	     -0.31732663	      0.13440458	     -0.13440458	      0.31732663	     -0.06425219	      0.51926358	      0.23340541	     -0.23340541	     -0.51926358	      0.06425219	    100.31470551	     75.12990093	     -1.75082190	    -32.11681930	     30.40954517	     74.14384766	      0.33725215	     -0.66341498	      0.36460258	     -0.33170749	     40.10895865	    -10.88530888	     -5.04866889	      5.58715147	    100.24899922	     13.03417440	     82.49927642	     71.10285729	     96.38649317	      1.52062418	     83.89190408	     51.95950599	     97.19801098	    -13.42406033	     92.47616777	     43.21747050	    101.15277276	    -14.17000305	     92.28171247	      5.46236769	      0.00090585	     -0.03108540	     -0.00486141	      0.01530466	     -0.01846090	     -0.00300784	      0.00207161	     -0.06844242	     -0.00602268	      0.01139770	     -0.18261928	     -0.00018983	     -0.00889724	      0.00294908	     -0.00041461	      0.00031019	      0.00012408	      0.00062038	      0.00039704	      0.00119112	      0.00067001	     -0.00001034	     -0.00010899	     -0.00013078	      0.00246259	      0.00863995	      0.00601040	     -0.00805560	      0.01945031	     -0.01844858	      0.00246259	      0.00863995	      0.00601040	      0.00054261	      0.01803119	     -0.00947472	      0.00390848	      0.00480456	      0.01587038	      0.00000000	      0.00754733	      0.00000000	     -0.00705387	     -0.03259806	     -0.00622179	      0.01978647	     -0.00082997	     -0.00855617	     -0.00087652	      0.01469208	     -0.00601040	      0.00242085	      0.02120335	     -0.01753033	     -0.00588518	      0.01273036	     -0.00538431	     -0.01227123	      0.02687983	     -0.03009372	     -0.02303986	      0.01423295	     -0.00722082	     -0.01527643	      0.03105372	     -0.03760672
